<?xml version="1.0" encoding="UTF-8"?>
<svg xmlns="http://www.w3.org/2000/svg" xmlns:xlink="http://www.w3.org/1999/xlink" viewBox="0 0 48 48" width="48px" height="48px">
<g id="surface699087">
<path style=" stroke:none;fill-rule:nonzero;fill:rgb(10.588235%,10.588235%,10.588235%);fill-opacity:1;" d="M 24 1.921875 C 23.3125 1.921875 22.632812 2.09375 22.015625 2.4375 L 5.847656 11.523438 C 4.617188 12.21875 3.839844 13.511719 3.839844 14.914062 L 3.839844 33.085938 C 3.839844 34.492188 4.617188 35.785156 5.847656 36.480469 L 22.015625 45.5625 C 23.246094 46.257812 24.753906 46.257812 25.984375 45.5625 L 42.152344 36.480469 C 43.386719 35.785156 44.160156 34.488281 44.160156 33.085938 L 44.160156 14.914062 C 44.160156 13.511719 43.382812 12.21875 42.152344 11.523438 L 25.984375 2.4375 C 25.367188 2.09375 24.6875 1.921875 24 1.921875 Z M 24 3.839844 C 24.359375 3.839844 24.722656 3.929688 25.046875 4.109375 L 41.214844 13.195312 C 41.859375 13.558594 42.238281 14.210938 42.238281 14.914062 L 42.238281 23.039062 L 40.320312 23.039062 L 40.320312 21.121094 L 38.398438 21.121094 L 38.398438 23.039062 L 36.480469 23.039062 L 36.480469 24.960938 L 38.398438 24.960938 L 38.398438 26.878906 L 40.320312 26.878906 L 40.320312 24.960938 L 42.238281 24.960938 L 42.238281 33.085938 C 42.238281 33.789062 41.859375 34.441406 41.210938 34.804688 L 25.046875 43.890625 C 24.402344 44.25 23.597656 44.25 22.953125 43.890625 L 6.789062 34.804688 C 6.140625 34.441406 5.761719 33.792969 5.761719 33.085938 L 5.761719 14.914062 C 5.761719 14.210938 6.140625 13.558594 6.789062 13.195312 L 22.953125 4.109375 C 23.277344 3.929688 23.640625 3.839844 24 3.839844 Z M 24 11.519531 C 17.125 11.519531 11.519531 17.125 11.519531 24 C 11.519531 30.875 17.125 36.480469 24 36.480469 C 27.925781 36.480469 31.570312 34.648438 33.925781 31.546875 L 34.582031 30.683594 L 28.769531 27.316406 L 28.246094 27.886719 C 27.160156 29.070312 25.625 29.761719 24 29.761719 C 20.816406 29.761719 18.238281 27.183594 18.238281 24 C 18.238281 20.816406 20.816406 18.238281 24 18.238281 C 25.625 18.238281 27.160156 18.929688 28.246094 20.113281 L 28.769531 20.683594 L 34.582031 17.316406 L 33.925781 16.453125 C 31.570312 13.351562 27.925781 11.519531 24 11.519531 Z M 24 13.441406 C 26.953125 13.441406 29.652344 14.703125 31.628906 16.8125 L 28.996094 18.332031 C 27.609375 17.117188 25.882812 16.320312 24 16.320312 C 19.773438 16.320312 16.320312 19.773438 16.320312 24 C 16.320312 28.226562 19.773438 31.679688 24 31.679688 C 25.882812 31.679688 27.609375 30.882812 28.996094 29.667969 L 31.628906 31.1875 C 29.652344 33.296875 26.953125 34.558594 24 34.558594 C 18.167969 34.558594 13.441406 29.832031 13.441406 24 C 13.441406 18.167969 18.167969 13.441406 24 13.441406 Z M 31.679688 21.121094 L 31.679688 23.039062 L 29.761719 23.039062 L 29.761719 24.960938 L 31.679688 24.960938 L 31.679688 26.878906 L 33.601562 26.878906 L 33.601562 24.960938 L 35.519531 24.960938 L 35.519531 23.039062 L 33.601562 23.039062 L 33.601562 21.121094 Z M 31.679688 21.121094 "/>
</g>
</svg>
