<?xml version="1.0" encoding="UTF-8"?>
<svg xmlns="http://www.w3.org/2000/svg" xmlns:xlink="http://www.w3.org/1999/xlink" viewBox="0 0 48 48" width="48px" height="48px">
<g id="surface49902291">
<path style=" stroke:none;fill-rule:nonzero;fill:rgb(10.588235%,10.588235%,10.588235%);fill-opacity:1;" d="M 24 3.839844 C 24.542969 3.839844 25.054688 4.050781 25.4375 4.4375 L 43.5625 22.5625 C 44.359375 23.355469 44.359375 24.644531 43.5625 25.4375 L 25.4375 43.5625 C 25.054688 43.949219 24.542969 44.160156 24 44.160156 C 23.457031 44.160156 22.945312 43.949219 22.5625 43.5625 L 4.4375 25.4375 C 3.640625 24.644531 3.640625 23.355469 4.4375 22.5625 L 16.265625 10.734375 L 18.445312 12.917969 C 17.921875 14.867188 18.449219 16.996094 19.925781 18.472656 C 20.28125 18.824219 20.679688 19.128906 21.121094 19.378906 L 21.121094 28.625 C 19.371094 29.632812 18.238281 31.511719 18.238281 33.601562 C 18.238281 36.777344 20.824219 39.359375 24 39.359375 C 27.175781 39.359375 29.761719 36.777344 29.761719 33.601562 C 29.761719 31.511719 28.628906 29.632812 26.878906 28.625 L 26.878906 21.351562 L 28.046875 22.519531 C 27.519531 24.46875 28.050781 26.59375 29.527344 28.074219 C 30.613281 29.160156 32.0625 29.761719 33.601562 29.761719 C 35.136719 29.761719 36.585938 29.160156 37.671875 28.074219 C 39.917969 25.828125 39.917969 22.171875 37.671875 19.925781 C 36.589844 18.84375 35.152344 18.246094 33.617188 18.246094 C 33.113281 18.246094 32.605469 18.316406 32.117188 18.445312 L 29.554688 15.882812 C 30.078125 13.929688 29.550781 11.804688 28.074219 10.328125 C 26.988281 9.242188 25.550781 8.648438 24.019531 8.648438 C 23.511719 8.648438 23.007812 8.714844 22.519531 8.847656 L 20.335938 6.664062 L 22.5625 4.4375 C 22.945312 4.050781 23.457031 3.839844 24 3.839844 M 24 1.921875 C 22.988281 1.921875 21.976562 2.304688 21.207031 3.078125 L 17.621094 6.664062 L 22.058594 11.101562 C 22.660156 10.746094 23.339844 10.566406 24.019531 10.566406 C 24.992188 10.566406 25.96875 10.9375 26.714844 11.683594 C 27.980469 12.949219 28.164062 14.867188 27.296875 16.339844 L 31.65625 20.699219 C 32.261719 20.347656 32.941406 20.167969 33.617188 20.167969 C 34.59375 20.167969 35.570312 20.539062 36.316406 21.285156 C 37.816406 22.785156 37.816406 25.214844 36.316406 26.714844 C 35.566406 27.464844 34.582031 27.839844 33.601562 27.839844 C 32.617188 27.839844 31.636719 27.464844 30.886719 26.714844 C 29.621094 25.453125 29.4375 23.53125 30.304688 22.058594 L 25.941406 17.695312 C 25.632812 17.878906 25.300781 18.015625 24.960938 18.101562 L 24.960938 29.894531 C 26.613281 30.324219 27.839844 31.8125 27.839844 33.601562 C 27.839844 35.722656 26.121094 37.441406 24 37.441406 C 21.882812 37.441406 20.160156 35.722656 20.160156 33.601562 C 20.160156 31.8125 21.386719 30.324219 23.039062 29.894531 L 23.039062 18.101562 C 22.398438 17.9375 21.789062 17.617188 21.285156 17.113281 C 20.019531 15.851562 19.835938 13.929688 20.703125 12.460938 L 16.265625 8.019531 L 3.078125 21.207031 C 1.535156 22.746094 1.535156 25.253906 3.078125 26.792969 L 21.207031 44.921875 C 21.976562 45.695312 22.988281 46.078125 24 46.078125 C 25.011719 46.078125 26.023438 45.695312 26.792969 44.921875 L 44.921875 26.792969 C 46.464844 25.253906 46.464844 22.746094 44.921875 21.207031 L 26.792969 3.078125 C 26.023438 2.304688 25.011719 1.921875 24 1.921875 Z M 24 1.921875 "/>
</g>
</svg>
