<?xml version="1.0" encoding="UTF-8"?>
<svg xmlns="http://www.w3.org/2000/svg" xmlns:xlink="http://www.w3.org/1999/xlink" viewBox="0 0 48 48" width="48px" height="48px">
<g id="surface159748974">
<path style=" stroke:none;fill-rule:nonzero;fill:rgb(10.588235%,10.588235%,10.588235%);fill-opacity:1;" d="M 27.058594 0 C 29.699219 6.109375 17.59375 9.882812 16.46875 14.96875 C 15.4375 19.644531 23.664062 25.078125 23.671875 25.078125 C 22.421875 23.144531 21.503906 21.550781 20.25 18.539062 C 18.132812 13.449219 33.152344 8.839844 27.058594 0 Z M 35.101562 8.460938 C 35.101562 8.460938 24.480469 9.140625 23.941406 15.929688 C 23.699219 18.953125 26.734375 20.542969 26.820312 22.738281 C 26.890625 24.535156 25.019531 26.039062 25.019531 26.039062 C 25.019531 26.039062 28.425781 25.390625 29.488281 22.648438 C 30.671875 19.609375 27.1875 17.554688 27.539062 15.121094 C 27.878906 12.792969 35.101562 8.460938 35.101562 8.460938 Z M 18.421875 24.148438 C 18.421875 24.148438 8.699219 24.011719 8.699219 26.761719 C 8.699219 29.632812 21.421875 29.847656 30.511719 28.078125 C 30.511719 28.078125 32.925781 26.417969 33.570312 25.800781 C 27.613281 27.015625 14.039062 27.148438 14.039062 26.101562 C 14.039062 25.132812 18.421875 24.148438 18.421875 24.148438 Z M 37.109375 24.148438 C 36.15625 24.226562 35.128906 24.59375 34.199219 25.261719 C 36.390625 24.789062 38.25 26.144531 38.25 27.691406 C 38.25 31.171875 33.210938 34.441406 33.210938 34.441406 C 33.210938 34.441406 41.011719 33.554688 41.011719 27.839844 C 41.011719 25.246094 39.207031 23.984375 37.109375 24.148438 Z M 16.078125 29.488281 C 14.585938 29.488281 12.359375 30.660156 12.359375 31.769531 C 12.359375 34 23.578125 35.71875 31.890625 32.460938 L 29.011719 30.691406 C 23.378906 32.492188 13.003906 31.90625 16.078125 29.488281 Z M 17.460938 34.5 C 15.417969 34.5 14.070312 35.734375 14.070312 36.660156 C 14.070312 39.523438 26.277344 39.8125 31.109375 36.898438 L 28.050781 34.949219 C 24.4375 36.476562 15.375 36.707031 17.460938 34.5 Z M 10.648438 37.078125 C 7.320312 37.011719 5.160156 38.507812 5.160156 39.75 C 5.160156 46.351562 39.238281 46.046875 39.238281 39.300781 C 39.238281 38.179688 37.945312 37.636719 37.46875 37.378906 C 40.257812 43.828125 9.570312 43.316406 9.570312 39.511719 C 9.570312 38.644531 11.828125 37.816406 13.921875 38.21875 L 12.148438 37.199219 C 11.628906 37.121094 11.125 37.089844 10.648438 37.078125 Z M 42.839844 41.519531 C 37.65625 46.433594 24.523438 48.214844 11.308594 45.179688 C 24.519531 50.585938 42.777344 47.554688 42.839844 41.519531 Z M 42.839844 41.519531 "/>
</g>
</svg>
