<svg xmlns="http://www.w3.org/2000/svg" x="0px" y="0px" width="48" height="48" viewBox="0 0 172 172" style=" fill:#000000;">
  <g fill="none" fill-rule="nonzero" stroke="none" stroke-width="1" stroke-linecap="butt" stroke-linejoin="miter" stroke-miterlimit="10" stroke-dasharray="" stroke-dashoffset="0" font-family="none" font-weight="none" font-size="none" text-anchor="none" style="mix-blend-mode: normal">
    <path d="M0,172v-172h172v172z" fill="none"></path>
    <g fill="#1b1b1b">
      <path d="M22.93781,13.76c-5.02563,0 -9.17781,4.15219 -9.17781,9.17781v126.12437c0,5.02563 4.15219,9.17781 9.17781,9.17781h126.12437c5.02563,0 9.17781,-4.13875 9.17781,-9.17781v-126.12437c0,-5.02563 -4.13875,-9.17781 -9.17781,-9.17781zM22.93781,20.64h126.12437c1.27656,0 2.29781,1.02125 2.29781,2.29781v126.12437c0,1.27656 -1.02125,2.29781 -2.29781,2.29781h-126.12437c-1.27656,0 -2.29781,-1.02125 -2.29781,-2.29781v-126.12437c0,-1.27656 1.02125,-2.29781 2.29781,-2.29781zM79.12,79.12v43.25531c0,6.63812 -2.51281,8.34469 -6.88,8.34469c-4.56875,0 -7.74,-2.84875 -9.83625,-6.54406l-10.80375,6.54406c3.13094,6.62469 10.80375,13.76 21.44625,13.76c11.77125,0 19.83375,-6.26187 19.83375,-20.00844v-45.35156zM121.95875,79.12c-11.7175,0 -19.22906,7.49813 -19.22906,17.34781c0,10.68281 6.30219,15.73531 15.77563,19.76656l3.27875,1.41094c5.97969,2.62031 8.93594,4.21937 8.93594,8.72094c0,3.74906 -2.84875,6.46344 -8.29094,6.46344c-6.47688,0 -9.54063,-4.39406 -12.34906,-8.98969l-10.32,6.88c3.85656,7.61906 10.77688,13.76 22.96469,13.76c12.47,0 21.75531,-6.47687 21.75531,-18.28844c0,-10.965 -6.28875,-15.84281 -17.45531,-20.62656l-3.27875,-1.3975c-5.63031,-2.44562 -8.07594,-4.03125 -8.07594,-7.96844c0,-3.18469 2.44563,-5.63031 6.28875,-5.63031c3.77594,0 6.19469,1.59906 8.43875,5.63031l10.22594,-6.5575c-4.31344,-7.61906 -10.32,-10.52156 -18.66469,-10.52156z"></path>
    </g>
  </g>
</svg>