<?xml version="1.0" standalone="no"?>
<!DOCTYPE svg PUBLIC "-//W3C//DTD SVG 20010904//EN"
 "http://www.w3.org/TR/2001/REC-SVG-20010904/DTD/svg10.dtd">
<svg version="1.0" xmlns="http://www.w3.org/2000/svg"
 width="2400.000000pt" height="1257.000000pt" viewBox="0 0 2400.000000 1257.000000"
 preserveAspectRatio="xMidYMid meet">

<g transform="translate(0.000000,1257.000000) scale(0.100000,-0.100000)"
fill="#000000" stroke="none">
<path d="M10701 10958 c-46 -223 -1301 -6589 -1301 -6598 0 -7 234 -9 777 -8
l777 3 370 1848 369 1848 716 -4 c632 -3 723 -5 778 -20 130 -35 207 -90 247
-176 18 -40 21 -63 20 -181 -1 -133 -6 -159 -303 -1722 -165 -873 -301 -1590
-301 -1593 0 -3 369 -5 820 -5 567 0 820 3 820 11 0 5 134 789 297 1742 l297
1732 0 185 c0 168 -3 194 -27 285 -59 220 -182 414 -352 554 -242 201 -546
320 -1000 392 -135 22 -170 23 -952 26 -447 2 -813 6 -813 9 0 3 72 382 160
844 88 462 160 848 160 860 0 20 -1 20 -774 20 l-775 0 -10 -52z"/>
<path d="M4689 9278 c-9 -24 -1314 -6650 -1310 -6653 2 -3 352 -5 777 -5 l772
0 6 28 c3 15 76 396 161 847 86 451 158 828 161 837 5 16 70 17 952 20 929 4
949 4 1072 26 459 82 867 258 1226 528 676 507 1084 1254 1175 2149 15 146 14
494 -1 625 -36 318 -128 590 -277 814 -92 139 -272 319 -417 415 -290 193
-645 308 -1101 356 -117 12 -387 15 -1667 15 -841 0 -1528 -1 -1529 -2z m2706
-1257 c121 -27 253 -76 332 -122 94 -55 213 -181 256 -269 55 -112 71 -186 70
-320 -2 -191 -50 -508 -106 -695 -169 -557 -483 -857 -1030 -979 -230 -52
-284 -56 -824 -56 -334 0 -503 3 -503 10 0 13 398 2406 405 2438 l6 23 647 -4
c627 -3 650 -4 747 -26z"/>
<path d="M15697 9258 c-12 -49 -1307 -6617 -1307 -6627 0 -8 223 -10 777 -9
l776 3 163 855 c90 470 164 858 164 863 0 4 402 7 893 7 963 0 1015 2 1264 55
400 84 801 274 1153 545 125 96 396 369 491 495 344 453 542 946 616 1535 21
172 24 592 4 730 -78 556 -297 935 -695 1202 -247 165 -563 275 -974 340 -136
22 -153 22 -1728 25 l-1592 4 -5 -23z m2616 -1223 c381 -50 637 -227 723 -499
33 -105 39 -196 25 -357 -77 -839 -380 -1311 -962 -1497 -124 -40 -206 -59
-359 -82 -111 -18 -180 -20 -633 -20 l-509 0 6 28 c7 31 406 2429 406 2437 0
3 269 5 598 5 461 0 622 -4 705 -15z"/>
</g>
</svg>
