<?xml version="1.0" encoding="UTF-8"?>
<svg xmlns="http://www.w3.org/2000/svg" xmlns:xlink="http://www.w3.org/1999/xlink" viewBox="0 0 48 48" width="48px" height="48px">
<g id="surface49824295">
<path style=" stroke:none;fill-rule:nonzero;fill:rgb(10.588235%,10.588235%,10.588235%);fill-opacity:1;" d="M 33.171875 3.824219 C 32.425781 3.800781 31.640625 3.929688 30.855469 4.183594 C 29.285156 4.695312 27.636719 5.6875 25.949219 7.0625 C 25.285156 7.601562 24.617188 8.214844 23.949219 8.867188 C 23.292969 8.230469 22.636719 7.632812 21.988281 7.105469 C 20.300781 5.730469 18.660156 4.738281 17.09375 4.230469 C 15.523438 3.722656 13.964844 3.707031 12.683594 4.449219 C 11.402344 5.1875 10.636719 6.542969 10.292969 8.15625 C 9.949219 9.769531 9.984375 11.6875 10.332031 13.835938 C 10.449219 14.582031 10.625 15.363281 10.820312 16.164062 C 10.085938 16.382812 9.375 16.617188 8.71875 16.875 C 6.726562 17.652344 5.082031 18.582031 3.882812 19.6875 C 2.683594 20.792969 1.910156 22.136719 1.910156 23.609375 C 1.910156 25.085938 2.683594 26.425781 3.882812 27.53125 C 5.082031 28.636719 6.726562 29.566406 8.71875 30.34375 C 9.421875 30.621094 10.183594 30.867188 10.972656 31.101562 C 10.6875 32.160156 10.460938 33.1875 10.304688 34.164062 C 9.957031 36.3125 9.921875 38.230469 10.265625 39.847656 C 10.609375 41.460938 11.375 42.828125 12.664062 43.570312 C 13.949219 44.316406 15.519531 44.296875 17.089844 43.785156 C 18.660156 43.277344 20.304688 42.285156 21.992188 40.914062 C 22.648438 40.378906 23.3125 39.769531 23.976562 39.125 C 24.644531 39.773438 25.3125 40.386719 25.96875 40.921875 C 27.660156 42.296875 29.300781 43.285156 30.871094 43.792969 C 32.4375 44.300781 33.996094 44.316406 35.277344 43.578125 C 36.558594 42.839844 37.324219 41.480469 37.667969 39.871094 C 38.011719 38.257812 37.972656 36.339844 37.628906 34.191406 C 37.46875 33.214844 37.242188 32.183594 36.957031 31.125 C 37.769531 30.882812 38.558594 30.628906 39.28125 30.34375 C 41.273438 29.566406 42.917969 28.636719 44.117188 27.53125 C 45.316406 26.425781 46.089844 25.085938 46.089844 23.609375 C 46.089844 22.136719 45.316406 20.792969 44.117188 19.6875 C 42.917969 18.582031 41.273438 17.652344 39.28125 16.875 C 38.613281 16.613281 37.894531 16.378906 37.148438 16.152344 C 37.34375 15.351562 37.519531 14.5625 37.640625 13.8125 C 37.984375 11.660156 38.023438 9.738281 37.679688 8.125 C 37.332031 6.507812 36.566406 5.144531 35.277344 4.402344 C 34.632812 4.03125 33.921875 3.851562 33.171875 3.824219 Z M 33.085938 5.777344 C 33.554688 5.792969 33.953125 5.902344 34.296875 6.101562 C 34.984375 6.496094 35.488281 7.265625 35.761719 8.535156 C 36.03125 9.800781 36.019531 11.515625 35.703125 13.5 C 35.59375 14.183594 35.433594 14.902344 35.253906 15.640625 C 33.289062 15.167969 31.140625 14.816406 28.847656 14.613281 C 27.695312 13.015625 26.511719 11.566406 25.316406 10.273438 C 25.949219 9.660156 26.574219 9.082031 27.1875 8.585938 C 28.75 7.316406 30.226562 6.453125 31.457031 6.050781 C 32.074219 5.851562 32.613281 5.765625 33.085938 5.777344 Z M 14.867188 5.785156 C 15.339844 5.769531 15.878906 5.859375 16.5 6.058594 C 17.734375 6.460938 19.214844 7.324219 20.777344 8.59375 C 21.375 9.082031 21.988281 9.644531 22.605469 10.246094 C 21.40625 11.542969 20.214844 13.011719 19.054688 14.621094 C 16.769531 14.832031 14.625 15.183594 12.671875 15.660156 C 12.492188 14.925781 12.335938 14.207031 12.226562 13.53125 C 11.90625 11.542969 11.898438 9.828125 12.171875 8.554688 C 12.441406 7.285156 12.953125 6.511719 13.644531 6.109375 C 13.992188 5.910156 14.394531 5.796875 14.867188 5.785156 Z M 23.976562 11.65625 C 24.757812 12.507812 25.542969 13.4375 26.316406 14.441406 C 25.554688 14.410156 24.785156 14.390625 24 14.390625 C 23.199219 14.390625 22.414062 14.410156 21.636719 14.441406 C 22.414062 13.441406 23.195312 12.507812 23.976562 11.65625 Z M 24 16.328125 C 25.304688 16.328125 26.578125 16.382812 27.816406 16.472656 C 28.667969 17.695312 29.5 18.996094 30.292969 20.367188 C 30.988281 21.574219 31.621094 22.78125 32.195312 23.96875 C 31.613281 25.175781 30.972656 26.398438 30.265625 27.621094 C 29.644531 28.699219 28.996094 29.71875 28.335938 30.707031 C 26.9375 30.824219 25.488281 30.890625 24 30.890625 C 22.476562 30.890625 20.996094 30.820312 19.566406 30.699219 C 18.917969 29.726562 18.277344 28.714844 17.667969 27.65625 C 16.960938 26.433594 16.324219 25.21875 15.746094 24.015625 C 16.324219 22.804688 16.964844 21.578125 17.675781 20.351562 C 18.464844 18.984375 19.292969 17.695312 20.140625 16.476562 C 21.390625 16.382812 22.679688 16.328125 24 16.328125 Z M 30.289062 16.714844 C 31.871094 16.910156 33.355469 17.183594 34.738281 17.515625 C 34.328125 18.859375 33.824219 20.265625 33.210938 21.714844 C 32.8125 20.949219 32.402344 20.179688 31.957031 19.40625 C 31.417969 18.476562 30.855469 17.582031 30.289062 16.714844 Z M 17.609375 16.730469 C 17.054688 17.582031 16.507812 18.457031 15.980469 19.371094 C 15.527344 20.152344 15.109375 20.929688 14.707031 21.707031 C 14.097656 20.265625 13.597656 18.867188 13.1875 17.53125 C 14.5625 17.203125 16.039062 16.929688 17.609375 16.730469 Z M 36.636719 18.023438 C 37.316406 18.230469 37.976562 18.445312 38.578125 18.679688 C 40.410156 19.398438 41.863281 20.246094 42.800781 21.113281 C 43.742188 21.980469 44.152344 22.808594 44.152344 23.609375 C 44.152344 24.414062 43.742188 25.238281 42.800781 26.109375 C 41.863281 26.976562 40.410156 27.824219 38.578125 28.539062 C 37.90625 28.800781 37.171875 29.039062 36.40625 29.261719 C 35.859375 27.574219 35.164062 25.8125 34.335938 24.015625 C 35.289062 21.949219 36.058594 19.9375 36.636719 18.023438 Z M 11.332031 18.035156 C 11.902344 19.929688 12.664062 21.921875 13.601562 23.964844 C 12.769531 25.773438 12.066406 27.542969 11.519531 29.242188 C 10.78125 29.023438 10.070312 28.792969 9.421875 28.539062 C 7.589844 27.824219 6.136719 26.976562 5.199219 26.109375 C 4.257812 25.238281 3.847656 24.414062 3.847656 23.609375 C 3.847656 22.808594 4.257812 21.980469 5.199219 21.113281 C 6.136719 20.246094 7.589844 19.398438 9.421875 18.679688 C 10.015625 18.449219 10.660156 18.238281 11.332031 18.035156 Z M 24 19.199219 C 21.359375 19.199219 19.199219 21.359375 19.199219 24 C 19.199219 26.640625 21.359375 28.800781 24 28.800781 C 26.640625 28.800781 28.800781 26.640625 28.800781 24 C 28.800781 21.359375 26.640625 19.199219 24 19.199219 Z M 24 21.121094 C 25.601562 21.121094 26.878906 22.398438 26.878906 24 C 26.878906 25.601562 25.601562 26.878906 24 26.878906 C 22.398438 26.878906 21.121094 25.601562 21.121094 24 C 21.121094 22.398438 22.398438 21.121094 24 21.121094 Z M 33.234375 26.269531 C 33.738281 27.460938 34.175781 28.625 34.542969 29.75 C 33.386719 30.019531 32.160156 30.242188 30.867188 30.421875 C 31.238281 29.828125 31.605469 29.222656 31.964844 28.601562 C 32.414062 27.820312 32.832031 27.042969 33.234375 26.269531 Z M 14.726562 26.269531 C 15.132812 27.050781 15.550781 27.832031 16.003906 28.617188 C 16.359375 29.230469 16.722656 29.828125 17.089844 30.417969 C 15.800781 30.238281 14.574219 30.011719 13.421875 29.742188 C 13.789062 28.621094 14.226562 27.457031 14.726562 26.269531 Z M 12.871094 31.605469 C 14.609375 32.019531 16.492188 32.335938 18.488281 32.539062 C 19.820312 34.46875 21.207031 36.199219 22.605469 37.714844 C 21.980469 38.324219 21.363281 38.898438 20.757812 39.390625 C 19.195312 40.660156 17.714844 41.523438 16.484375 41.921875 C 15.25 42.320312 14.328125 42.269531 13.644531 41.871094 C 12.957031 41.476562 12.453125 40.707031 12.183594 39.4375 C 11.914062 38.171875 11.921875 36.460938 12.238281 34.472656 C 12.382812 33.574219 12.601562 32.609375 12.871094 31.605469 Z M 35.097656 31.613281 C 35.367188 32.621094 35.585938 33.589844 35.730469 34.496094 C 36.050781 36.484375 36.058594 38.199219 35.789062 39.46875 C 35.515625 40.738281 35.007812 41.515625 34.316406 41.914062 C 33.625 42.316406 32.695312 42.367188 31.460938 41.96875 C 30.222656 41.566406 28.742188 40.703125 27.183594 39.429688 C 26.570312 38.933594 25.949219 38.359375 25.316406 37.746094 C 26.726562 36.226562 28.125 34.484375 29.464844 32.542969 C 31.46875 32.339844 33.355469 32.027344 35.097656 31.613281 Z M 20.992188 32.738281 C 21.976562 32.792969 22.976562 32.828125 24 32.828125 C 24.988281 32.828125 25.957031 32.792969 26.910156 32.742188 C 25.933594 34.058594 24.941406 35.257812 23.949219 36.332031 C 22.960938 35.253906 21.96875 34.054688 20.992188 32.738281 Z M 20.992188 32.738281 "/>
</g>
</svg>
