<?xml version="1.0" encoding="UTF-8"?>
<svg xmlns="http://www.w3.org/2000/svg" xmlns:xlink="http://www.w3.org/1999/xlink" viewBox="0 0 48 48" width="48px" height="48px">
<g id="surface545584">
<path style=" stroke:none;fill-rule:nonzero;fill:rgb(10.588235%,10.588235%,10.588235%);fill-opacity:1;" d="M 23.039062 1.921875 C 16.160156 1.921875 10.558594 9.878906 10.558594 19.667969 C 10.558594 24.558594 11.984375 28.949219 14.25 32.152344 C 13.707031 32.855469 13.441406 33.710938 13.441406 34.558594 C 13.441406 35.492188 13.746094 36.441406 14.402344 37.175781 C 15.058594 37.914062 16.078125 38.398438 17.28125 38.398438 C 18.480469 38.398438 19.503906 37.914062 20.15625 37.175781 C 20.8125 36.441406 21.121094 35.492188 21.121094 34.558594 C 21.121094 33.625 20.8125 32.679688 20.15625 31.941406 C 19.503906 31.203125 18.480469 30.71875 17.28125 30.71875 C 16.722656 30.71875 16.207031 30.832031 15.746094 31.019531 C 13.746094 28.144531 12.480469 24.136719 12.480469 19.667969 C 12.480469 10.941406 17.21875 3.839844 23.039062 3.839844 C 28.242188 3.839844 32.566406 9.511719 33.429688 16.945312 C 34.109375 17.203125 34.785156 17.492188 35.449219 17.8125 C 34.796875 8.894531 29.480469 1.921875 23.039062 1.921875 Z M 21.121094 14.398438 C 19.921875 14.398438 18.898438 14.882812 18.242188 15.621094 C 17.585938 16.359375 17.28125 17.308594 17.28125 18.238281 C 17.28125 19.171875 17.585938 20.121094 18.242188 20.859375 C 18.898438 21.59375 19.921875 22.078125 21.121094 22.078125 C 22.320312 22.078125 23.34375 21.59375 24 20.859375 C 24.40625 20.394531 24.667969 19.851562 24.8125 19.28125 C 28.25 19.132812 32.109375 20.148438 35.65625 22.273438 C 43.234375 26.816406 47.050781 34.738281 44.164062 39.933594 C 43.132812 41.785156 41.335938 43.101562 38.960938 43.734375 C 35.640625 44.628906 31.554688 44.078125 27.660156 42.316406 C 27.097656 42.769531 26.503906 43.195312 25.890625 43.609375 C 29.082031 45.222656 32.460938 46.078125 35.578125 46.078125 C 36.933594 46.078125 38.238281 45.917969 39.460938 45.589844 C 42.347656 44.816406 44.554688 43.183594 45.84375 40.863281 C 49.226562 34.777344 45.101562 25.699219 36.644531 20.628906 C 32.824219 18.339844 28.632812 17.21875 24.851562 17.34375 C 24.714844 16.71875 24.441406 16.121094 24 15.621094 C 23.34375 14.882812 22.320312 14.398438 21.121094 14.398438 Z M 21.121094 16.320312 C 21.839844 16.320312 22.257812 16.554688 22.5625 16.898438 C 22.867188 17.238281 23.039062 17.734375 23.039062 18.238281 C 23.039062 18.746094 22.867188 19.242188 22.5625 19.582031 C 22.257812 19.925781 21.839844 20.160156 21.121094 20.160156 C 20.398438 20.160156 19.980469 19.925781 19.679688 19.582031 C 19.375 19.242188 19.199219 18.746094 19.199219 18.238281 C 19.199219 17.734375 19.375 17.238281 19.679688 16.898438 C 19.980469 16.554688 20.398438 16.320312 21.121094 16.320312 Z M 8.796875 22.398438 C 2.109375 27.621094 -0.863281 35.429688 2.15625 40.863281 C 3.449219 43.183594 5.65625 44.816406 8.542969 45.589844 C 9.761719 45.914062 11.066406 46.078125 12.421875 46.078125 C 16.070312 46.078125 20.074219 44.917969 23.71875 42.730469 C 28.09375 40.109375 31.242188 36.414062 32.84375 32.621094 C 33.953125 32.566406 34.902344 32.113281 35.519531 31.417969 C 36.175781 30.679688 36.480469 29.734375 36.480469 28.800781 C 36.480469 27.867188 36.175781 26.921875 35.519531 26.183594 C 34.863281 25.445312 33.839844 24.960938 32.640625 24.960938 C 31.441406 24.960938 30.417969 25.445312 29.761719 26.183594 C 29.105469 26.921875 28.800781 27.867188 28.800781 28.800781 C 28.800781 29.734375 29.105469 30.679688 29.761719 31.417969 C 30.082031 31.777344 30.488281 32.070312 30.960938 32.285156 C 29.453125 35.554688 26.605469 38.761719 22.730469 41.085938 C 18.171875 43.820312 13.050781 44.8125 9.039062 43.734375 C 6.664062 43.101562 4.867188 41.785156 3.835938 39.933594 C 1.394531 35.542969 3.757812 29.210938 9.121094 24.609375 C 8.984375 23.886719 8.875 23.148438 8.796875 22.398438 Z M 32.640625 26.878906 C 33.359375 26.878906 33.777344 27.117188 34.082031 27.457031 C 34.386719 27.800781 34.558594 28.292969 34.558594 28.800781 C 34.558594 29.308594 34.386719 29.800781 34.082031 30.140625 C 33.777344 30.484375 33.359375 30.71875 32.640625 30.71875 C 31.921875 30.71875 31.503906 30.484375 31.199219 30.140625 C 30.894531 29.800781 30.71875 29.308594 30.71875 28.800781 C 30.71875 28.292969 30.894531 27.800781 31.199219 27.457031 C 31.503906 27.117188 31.921875 26.878906 32.640625 26.878906 Z M 17.28125 32.640625 C 18 32.640625 18.417969 32.875 18.722656 33.21875 C 19.027344 33.558594 19.199219 34.054688 19.199219 34.558594 C 19.199219 35.066406 19.027344 35.558594 18.722656 35.902344 C 18.417969 36.246094 18 36.480469 17.28125 36.480469 C 16.558594 36.480469 16.140625 36.246094 15.839844 35.902344 C 15.535156 35.558594 15.359375 35.066406 15.359375 34.558594 C 15.359375 34.054688 15.535156 33.558594 15.839844 33.21875 C 16.140625 32.875 16.558594 32.640625 17.28125 32.640625 Z M 17.28125 32.640625 "/>
</g>
</svg>
