<?xml version="1.0" standalone="no"?>
<!DOCTYPE svg PUBLIC "-//W3C//DTD SVG 20010904//EN"
 "http://www.w3.org/TR/2001/REC-SVG-20010904/DTD/svg10.dtd">
<svg version="1.0" xmlns="http://www.w3.org/2000/svg"
 width="840.000000pt" height="635.000000pt" viewBox="0 0 840.000000 635.000000"
 preserveAspectRatio="xMidYMid meet">

<g transform="translate(0.000000,635.000000) scale(0.100000,-0.100000)"
fill="#000000" stroke="none">
<path d="M2250 5940 c-672 -54 -1243 -498 -1454 -1131 -62 -186 -79 -291 -80
-494 -1 -190 7 -250 58 -426 l24 -82 -132 -131 c-238 -236 -369 -476 -433
-791 -27 -135 -24 -424 5 -562 64 -296 198 -541 416 -758 215 -214 449 -343
738 -406 88 -19 315 -42 340 -35 7 3 41 7 75 10 l62 6 62 -105 c420 -705 1287
-946 1991 -552 182 102 386 291 504 468 38 57 69 105 70 107 0 1 48 -13 106
-32 167 -55 262 -69 413 -63 260 11 484 85 709 234 121 80 276 231 365 356 35
48 69 87 75 87 7 0 61 -5 121 -11 123 -12 285 -1 450 32 460 92 897 388 1158
784 383 583 405 1332 54 1926 -259 441 -685 753 -1178 863 -316 70 -568 59
-877 -39 -63 -20 -115 -35 -117 -33 -2 2 -22 28 -44 58 -63 84 -196 215 -289
285 -214 160 -490 258 -767 272 -332 17 -691 -121 -957 -366 l-76 -71 -52 58
c-272 300 -684 509 -1055 537 -162 12 -192 12 -285 5z m410 -359 c356 -82 640
-286 855 -613 50 -76 93 -138 97 -138 4 0 46 53 94 118 48 64 119 149 159 188
418 413 1098 411 1516 -6 77 -77 146 -172 213 -292 21 -38 42 -68 46 -68 5 0
49 17 97 39 252 111 511 156 760 132 590 -57 1067 -421 1277 -976 13 -33 36
-112 52 -175 27 -108 28 -127 29 -330 0 -240 -9 -304 -71 -490 -71 -214 -193
-408 -359 -575 -203 -203 -443 -336 -725 -402 -160 -37 -399 -43 -584 -14 -76
13 -139 21 -141 19 -1 -2 -24 -45 -50 -97 -143 -279 -385 -483 -669 -565 -275
-80 -545 -52 -818 85 -43 22 -84 39 -91 39 -7 0 -38 -53 -68 -117 -120 -262
-290 -450 -521 -577 -328 -181 -775 -181 -1107 0 -250 136 -433 352 -545 641
-40 103 -30 99 -205 69 -133 -24 -345 -18 -469 13 -721 180 -1095 973 -772
1637 90 186 237 351 421 474 52 35 96 64 98 66 2 2 -15 53 -37 113 -86 231
-115 423 -94 629 62 608 503 1080 1112 1188 109 19 389 11 500 -15z"/>
<path d="M2715 3938 c-3 -7 -4 -231 -3 -498 l3 -485 64 -3 c45 -2 67 1 72 10
10 15 12 948 3 972 -8 20 -132 23 -139 4z"/>
<path d="M4725 3941 c-87 -22 -155 -91 -185 -189 -11 -35 -20 -72 -20 -82 0
-42 -11 -50 -65 -50 l-53 0 -11 -50 c-6 -28 -11 -55 -11 -60 0 -6 25 -10 55
-10 37 0 55 -4 55 -12 0 -7 -23 -139 -50 -293 -79 -438 -88 -459 -207 -460
l-66 0 -13 -35 c-21 -59 -18 -68 29 -81 94 -25 216 13 268 83 48 68 68 139
127 472 l57 321 80 5 c79 5 80 5 86 35 4 17 7 42 8 58 l1 27 -76 0 -76 0 7 48
c9 65 39 128 67 143 13 7 50 13 84 12 l61 -2 17 50 c10 28 16 52 13 55 -19 20
-126 28 -182 15z"/>
<path d="M1547 3609 c-167 -39 -230 -201 -117 -302 30 -28 65 -44 156 -73 161
-50 193 -86 133 -149 -17 -17 -32 -20 -102 -20 -71 1 -91 5 -151 33 -38 18
-72 29 -76 25 -4 -4 -14 -27 -24 -51 l-16 -43 62 -29 c177 -82 391 -52 452 64
24 48 26 119 3 163 -25 47 -68 73 -200 117 -92 31 -125 47 -140 68 -19 26 -19
28 -3 53 9 14 29 31 44 36 35 14 127 4 199 -21 31 -11 60 -17 64 -12 4 4 14
24 23 45 l15 38 -31 19 c-67 40 -206 59 -291 39z"/>
<path d="M2205 3611 c-72 -12 -128 -29 -149 -44 -18 -13 -18 -15 3 -61 17 -39
24 -47 38 -41 85 35 218 48 274 26 37 -13 59 -48 59 -91 l0 -35 -106 3 c-134
4 -199 -14 -260 -72 -50 -49 -70 -104 -60 -169 24 -158 210 -212 513 -147 l50
11 7 143 c16 317 -14 419 -134 461 -54 19 -167 27 -235 16z m194 -347 l31 -6
0 -93 0 -92 -46 -7 c-116 -15 -201 1 -223 42 -6 12 -11 38 -11 60 0 44 28 77
76 92 35 10 130 12 173 4z"/>
<path d="M3249 3607 c-160 -46 -236 -161 -227 -347 7 -147 65 -234 188 -282
105 -41 390 -21 390 27 0 12 -29 95 -34 95 0 0 -23 -7 -51 -15 -27 -9 -85 -16
-128 -16 -104 -1 -162 26 -194 91 -13 24 -23 54 -23 67 l0 23 228 2 227 3 0
75 c0 127 -53 218 -152 262 -56 25 -164 32 -224 15z m151 -113 c44 -18 77 -61
82 -109 l3 -30 -145 -3 c-79 -1 -150 0 -157 2 -15 6 8 79 35 109 40 46 114 58
182 31z"/>
<path d="M3937 3609 c-94 -22 -151 -73 -168 -150 -24 -104 36 -171 193 -220
160 -49 189 -70 168 -123 -25 -66 -155 -74 -278 -16 -36 17 -68 27 -72 23 -4
-4 -14 -27 -24 -51 l-16 -43 62 -29 c227 -105 472 -28 472 149 -1 98 -48 140
-218 195 -60 19 -117 43 -127 52 -25 23 -24 66 2 90 30 27 143 25 224 -4 32
-12 62 -19 66 -14 4 4 14 24 23 45 l15 38 -31 19 c-67 40 -206 59 -291 39z"/>
<path d="M5063 3610 c-127 -27 -212 -124 -232 -262 -22 -159 39 -301 157 -362
55 -28 149 -40 220 -27 107 20 173 67 220 155 25 47 27 60 27 171 0 111 -2
124 -27 170 -33 63 -80 108 -139 134 -53 24 -165 34 -226 21z m172 -129 c55
-31 70 -73 70 -196 0 -92 -3 -116 -20 -144 -34 -58 -68 -76 -140 -76 -74 0
-107 19 -139 81 -29 55 -30 220 -2 277 40 80 145 106 231 58z"/>
<path d="M5818 3606 c-21 -8 -49 -21 -63 -30 -32 -21 -35 -20 -35 9 0 26 -1
26 -67 23 l-68 -3 0 -325 0 -325 70 0 70 0 5 215 c4 182 8 220 23 248 27 50
71 72 143 72 l61 0 17 43 c25 66 22 73 -30 81 -64 8 -83 7 -126 -8z"/>
<path d="M6251 3604 c-143 -38 -220 -140 -229 -301 -14 -266 188 -404 486
-331 47 12 49 19 26 78 -13 31 -21 39 -33 34 -32 -13 -168 -16 -204 -5 -87 29
-127 94 -127 206 0 83 22 138 69 178 44 36 67 41 180 34 l97 -6 17 46 c21 55
19 57 -68 72 -82 14 -148 13 -214 -5z"/>
<path d="M6822 3605 c-155 -43 -231 -166 -220 -354 8 -144 78 -239 206 -278
111 -34 372 -12 372 32 0 12 -29 95 -34 95 0 0 -23 -7 -50 -15 -27 -8 -86 -15
-130 -15 -130 0 -193 43 -211 142 l-7 38 228 2 229 3 -1 80 c-1 126 -52 212
-152 257 -57 26 -163 32 -230 13z m158 -111 c44 -18 77 -61 82 -109 l3 -30
-145 -3 c-79 -1 -150 0 -157 2 -9 4 -10 12 -1 38 35 103 118 142 218 102z"/>
</g>
</svg>
